<mxfile host="app.diagrams.net" modified="2023-08-15T18:02:32.599Z" agent="Mozilla/5.0 (Windows NT 10.0; Win64; x64; rv:109.0) Gecko/20100101 Firefox/116.0" etag="PK6KKMNU8mjX0ec71ADe" version="21.6.8" type="github">
  <diagram name="Page-1" id="c37626ed-c26b-45fb-9056-f9ebc6bb27b6">
    <mxGraphModel dx="1434" dy="782" grid="1" gridSize="10" guides="1" tooltips="1" connect="1" arrows="1" fold="1" page="1" pageScale="1" pageWidth="1100" pageHeight="850" background="none" math="0" shadow="0">
      <root>
        <mxCell id="0" />
        <mxCell id="1" parent="0" />
        <mxCell id="1HUQiAz7I-Vp_8aPiegV-2" value="" style="shape=mxgraph.cisco.routers.router;sketch=0;html=1;pointerEvents=1;dashed=0;fillColor=#036897;strokeColor=#ffffff;strokeWidth=2;verticalLabelPosition=bottom;verticalAlign=top;align=center;outlineConnect=0;" parent="1" vertex="1">
          <mxGeometry x="480" y="260" width="78" height="53" as="geometry" />
        </mxCell>
        <mxCell id="1HUQiAz7I-Vp_8aPiegV-3" value="" style="shape=mxgraph.cisco.computers_and_peripherals.workstation;sketch=0;html=1;pointerEvents=1;dashed=0;fillColor=#036897;strokeColor=#ffffff;strokeWidth=2;verticalLabelPosition=bottom;verticalAlign=top;align=center;outlineConnect=0;" parent="1" vertex="1">
          <mxGeometry x="320" y="370" width="83" height="62" as="geometry" />
        </mxCell>
        <mxCell id="1HUQiAz7I-Vp_8aPiegV-4" value="" style="shape=mxgraph.cisco.computers_and_peripherals.workstation;sketch=0;html=1;pointerEvents=1;dashed=0;fillColor=#036897;strokeColor=#ffffff;strokeWidth=2;verticalLabelPosition=bottom;verticalAlign=top;align=center;outlineConnect=0;" parent="1" vertex="1">
          <mxGeometry x="640" y="370" width="83" height="62" as="geometry" />
        </mxCell>
        <mxCell id="1HUQiAz7I-Vp_8aPiegV-8" value="" style="endArrow=classic;html=1;rounded=0;" parent="1" source="1HUQiAz7I-Vp_8aPiegV-3" target="1HUQiAz7I-Vp_8aPiegV-2" edge="1">
          <mxGeometry relative="1" as="geometry">
            <mxPoint x="320" y="350" as="sourcePoint" />
            <mxPoint x="480" y="350" as="targetPoint" />
          </mxGeometry>
        </mxCell>
        <mxCell id="1HUQiAz7I-Vp_8aPiegV-10" value="&lt;div&gt;192.168.20.2/24&lt;/div&gt;" style="edgeLabel;resizable=0;html=1;align=left;verticalAlign=bottom;labelBackgroundColor=none;" parent="1HUQiAz7I-Vp_8aPiegV-8" connectable="0" vertex="1">
          <mxGeometry x="-1" relative="1" as="geometry">
            <mxPoint x="-13" y="34" as="offset" />
          </mxGeometry>
        </mxCell>
        <mxCell id="1HUQiAz7I-Vp_8aPiegV-11" value="&lt;div&gt;192.168.20.1/24&lt;/div&gt;" style="edgeLabel;resizable=0;html=1;align=right;verticalAlign=bottom;labelBackgroundColor=none;" parent="1HUQiAz7I-Vp_8aPiegV-8" connectable="0" vertex="1">
          <mxGeometry x="1" relative="1" as="geometry">
            <mxPoint x="-10" y="-13" as="offset" />
          </mxGeometry>
        </mxCell>
        <mxCell id="1HUQiAz7I-Vp_8aPiegV-17" value="Left" style="edgeLabel;html=1;align=center;verticalAlign=middle;resizable=0;points=[];labelBackgroundColor=none;" parent="1HUQiAz7I-Vp_8aPiegV-8" vertex="1" connectable="0">
          <mxGeometry x="-0.0187" y="-3" relative="1" as="geometry">
            <mxPoint x="-33" y="-2" as="offset" />
          </mxGeometry>
        </mxCell>
        <mxCell id="1HUQiAz7I-Vp_8aPiegV-12" value="" style="endArrow=classic;html=1;rounded=0;startFill=1;" parent="1" source="1HUQiAz7I-Vp_8aPiegV-4" target="1HUQiAz7I-Vp_8aPiegV-2" edge="1">
          <mxGeometry relative="1" as="geometry">
            <mxPoint x="620" y="510" as="sourcePoint" />
            <mxPoint x="560" y="390" as="targetPoint" />
          </mxGeometry>
        </mxCell>
        <mxCell id="1HUQiAz7I-Vp_8aPiegV-14" value="&lt;div&gt;192.168.20.2/24&lt;/div&gt;" style="edgeLabel;resizable=0;html=1;align=left;verticalAlign=bottom;labelBackgroundColor=none;" parent="1HUQiAz7I-Vp_8aPiegV-12" connectable="0" vertex="1">
          <mxGeometry x="-1" relative="1" as="geometry">
            <mxPoint x="-80" y="28" as="offset" />
          </mxGeometry>
        </mxCell>
        <mxCell id="1HUQiAz7I-Vp_8aPiegV-15" value="&lt;div&gt;192.168.30.1/24&lt;/div&gt;" style="edgeLabel;resizable=0;html=1;align=right;verticalAlign=bottom;labelBackgroundColor=none;" parent="1HUQiAz7I-Vp_8aPiegV-12" connectable="0" vertex="1">
          <mxGeometry x="1" relative="1" as="geometry">
            <mxPoint x="93" y="-13" as="offset" />
          </mxGeometry>
        </mxCell>
        <mxCell id="1HUQiAz7I-Vp_8aPiegV-18" value="Right" style="edgeLabel;html=1;align=center;verticalAlign=middle;resizable=0;points=[];labelBackgroundColor=none;" parent="1HUQiAz7I-Vp_8aPiegV-12" vertex="1" connectable="0">
          <mxGeometry x="-0.0137" y="2" relative="1" as="geometry">
            <mxPoint x="22" y="-5" as="offset" />
          </mxGeometry>
        </mxCell>
      </root>
    </mxGraphModel>
  </diagram>
</mxfile>
